<?xml version="1.0" standalone="no"?>
<!DOCTYPE svg PUBLIC "-//W3C//DTD SVG 20010904//EN"
 "http://www.w3.org/TR/2001/REC-SVG-20010904/DTD/svg10.dtd">
<svg version="1.0" xmlns="http://www.w3.org/2000/svg"
 width="390.000000pt" height="390.000000pt" viewBox="0 0 390.000000 390.000000"
 preserveAspectRatio="xMidYMid meet">
<metadata>
Created by potrace 1.11, written by Peter Selinger 2001-2013
</metadata>
<g transform="translate(0.000000,390.000000) scale(0.100000,-0.100000)"
fill="#000000" stroke="none">
<path d="M1897 3864 c-1 -1 -34 -4 -72 -7 -82 -7 -205 -25 -255 -37 -19 -5
-46 -11 -60 -14 -14 -3 -49 -12 -77 -21 -29 -8 -74 -21 -100 -29 -143 -42
-344 -151 -528 -287 -239 -177 -477 -481 -603 -769 -31 -70 -94 -266 -108
-335 -57 -280 -56 -581 3 -833 32 -140 31 -137 33 -137 1 0 3 -7 5 -15 7 -36
59 -177 72 -195 7 -11 13 -25 13 -31 0 -7 27 -60 59 -119 271 -486 711 -827
1236 -958 163 -41 250 -51 445 -51 348 -1 637 77 938 253 160 93 385 280 490
406 18 22 46 56 62 75 17 19 30 41 30 48 0 6 4 12 9 12 12 0 86 113 136 205
20 39 41 75 45 80 4 6 26 57 48 115 174 451 187 895 37 1346 -55 168 -154 362
-251 494 -19 25 -37 50 -41 55 -38 51 -131 154 -197 218 -237 230 -597 425
-889 483 -10 2 -26 5 -35 8 -9 3 -35 8 -57 11 -23 3 -52 7 -65 10 -50 10 -316
25 -323 19z"/>
<path d="M1988 3 c7 -3 16 -2 19 1 4 3 -2 6 -13 5 -11 0 -14 -3 -6 -6z"/>
</g>
</svg>
